<svg xmlns="http://www.w3.org/2000/svg" width="808" height="354" viewBox="0 0 808 354" font-family='system-ui, -apple-system, "Segoe UI", sans-serif'><rect x="0" y="0" width="808" height="354" rx="10" fill="#fcfcfb"/><rect x="0.5" y="0.5" width="807" height="353" rx="10" fill="none" stroke="rgba(11,11,11,0.10)"/><text x="20" y="26" font-size="15" font-weight="600" fill="#0b0b0b">Async render — Scenario 2 (awaits a 50ms source)</text><text x="20" y="44" font-size="11.5" fill="#898781">median Flight TTLB, ms — a correct engine clears the 50ms line; broken engines flagged</text><g><rect x="685.4" y="18" width="10" height="10" rx="2" fill="#eb6834"/><text x="700.4" y="27" font-size="11" fill="#52514e">Node baseline</text><rect x="626.6" y="18" width="10" height="10" rx="2" fill="#2a78d6"/><text x="641.6" y="27" font-size="11" fill="#52514e">Pola</text></g><g transform="translate(20,64)"><defs><pattern id="hatch" width="6" height="6" patternTransform="rotate(45)" patternUnits="userSpaceOnUse"><rect width="6" height="6" fill="#fcfcfb"/><line x1="0" y1="0" x2="0" y2="6" stroke="#898781" stroke-width="2"/></pattern></defs><line x1="148" y1="0" x2="148" y2="240" stroke="#e1e0d9"/><text x="148" y="256" font-size="10" fill="#898781" text-anchor="middle" font-variant-numeric="tabular-nums">0</text><line x1="318.38097185306344" y1="0" x2="318.38097185306344" y2="240" stroke="#e1e0d9"/><text x="318.38097185306344" y="256" font-size="10" fill="#898781" text-anchor="middle" font-variant-numeric="tabular-nums">20</text><line x1="488.7619437061269" y1="0" x2="488.7619437061269" y2="240" stroke="#e1e0d9"/><text x="488.7619437061269" y="256" font-size="10" fill="#898781" text-anchor="middle" font-variant-numeric="tabular-nums">40</text><line x1="659.1429155591902" y1="0" x2="659.1429155591902" y2="240" stroke="#e1e0d9"/><text x="659.1429155591902" y="256" font-size="10" fill="#898781" text-anchor="middle" font-variant-numeric="tabular-nums">60</text><text x="708" y="270" font-size="10" fill="#898781" text-anchor="end">ms</text><line x1="573.9524296326585" y1="-4" x2="573.9524296326585" y2="242" stroke="#d03b3b" stroke-dasharray="3 3" stroke-width="1"/><text x="573.9524296326585" y="-8" font-size="10" fill="#d03b3b" text-anchor="middle">50ms source</text><text x="138" y="13" font-size="11.5" fill="#0b0b0b" text-anchor="end">nodejs-rsc</text><path d="M148,0 h439.9361412117494 a4,4 0 0 1 4,4 v10 a4,4 0 0 1 -4,4 h-439.9361412117494 Z" fill="#eb6834"/><text x="598.9361412117494" y="13" font-size="11" fill="#52514e" font-variant-numeric="tabular-nums">52.1 ms</text><text x="138" y="43" font-size="11.5" fill="#0b0b0b" text-anchor="end">pola-goja</text><path d="M148,30 h495.9999999999999 a4,4 0 0 1 4,4 v10 a4,4 0 0 1 -4,4 h-495.9999999999999 Z" fill="#2a78d6"/><text x="654.9999999999999" y="43" font-size="11" fill="#52514e" font-variant-numeric="tabular-nums">58.7 ms</text><text x="138" y="73" font-size="11.5" fill="#0b0b0b" text-anchor="end">pola-moderncquickjs</text><path d="M148,60 h465.5955155728207 a4,4 0 0 1 4,4 v10 a4,4 0 0 1 -4,4 h-465.5955155728207 Z" fill="#2a78d6"/><text x="624.5955155728207" y="73" font-size="11" fill="#52514e" font-variant-numeric="tabular-nums">55.1 ms</text><text x="138" y="103" font-size="11.5" fill="#0b0b0b" text-anchor="end">pola-nativersc</text><path d="M148,90 h439.2035030327812 a4,4 0 0 1 4,4 v10 a4,4 0 0 1 -4,4 h-439.2035030327812 Z" fill="#2a78d6"/><text x="598.2035030327812" y="103" font-size="11" fill="#52514e" font-variant-numeric="tabular-nums">52 ms</text><text x="138" y="133" font-size="11.5" fill="#0b0b0b" text-anchor="end">pola-qjs</text><path d="M148,120 h5 a3,3 0 0 1 3,3 v12 a3,3 0 0 1 -3,3 h-5 Z" fill="url(#hatch)"/><text x="164" y="133" font-size="11" fill="#d03b3b">✗ content-missing</text><text x="138" y="163" font-size="11.5" fill="#0b0b0b" text-anchor="end">pola-quickjsgo</text><path d="M148,150 h5 a3,3 0 0 1 3,3 v12 a3,3 0 0 1 -3,3 h-5 Z" fill="url(#hatch)"/><text x="164" y="163" font-size="11" fill="#d03b3b">✗ content-missing</text><text x="138" y="193" font-size="11.5" fill="#0b0b0b" text-anchor="end">pola-sobek</text><path d="M148,180 h446.5724800654262 a4,4 0 0 1 4,4 v10 a4,4 0 0 1 -4,4 h-446.5724800654262 Z" fill="#2a78d6"/><text x="605.5724800654261" y="193" font-size="11" fill="#52514e" font-variant-numeric="tabular-nums">52.9 ms</text><text x="138" y="223" font-size="11.5" fill="#0b0b0b" text-anchor="end">pola-v8go</text><path d="M148,210 h465.70626320452527 a4,4 0 0 1 4,4 v10 a4,4 0 0 1 -4,4 h-465.70626320452527 Z" fill="#2a78d6"/><text x="624.7062632045253" y="223" font-size="11" fill="#52514e" font-variant-numeric="tabular-nums">55.1 ms</text></g></svg>