<svg xmlns="http://www.w3.org/2000/svg" width="778" height="390" viewBox="0 0 778 390" font-family='system-ui, -apple-system, "Segoe UI", sans-serif'><rect x="0" y="0" width="778" height="390" rx="10" fill="#fcfcfb"/><rect x="0.5" y="0.5" width="777" height="389" rx="10" fill="none" stroke="rgba(11,11,11,0.10)"/><text x="20" y="26" font-size="15" font-weight="600" fill="#0b0b0b">Build time</text><text x="20" y="44" font-size="11.5" fill="#898781">cold (clean) vs warm production build, ms</text><g><rect x="674" y="18" width="10" height="10" rx="2" fill="#eb6834"/><text x="689" y="27" font-size="11" fill="#52514e">warm build</text><rect x="578" y="18" width="10" height="10" rx="2" fill="#2a78d6"/><text x="593" y="27" font-size="11" fill="#52514e">cold build</text></g><g transform="translate(20,64)"><line x1="148" y1="0" x2="148" y2="266" stroke="#e1e0d9"/><text x="148" y="281" font-size="10" fill="#898781" text-anchor="middle" font-variant-numeric="tabular-nums">0</text><line x1="265.97387266723376" y1="0" x2="265.97387266723376" y2="266" stroke="#e1e0d9"/><text x="265.97387266723376" y="281" font-size="10" fill="#898781" text-anchor="middle" font-variant-numeric="tabular-nums">500</text><line x1="383.9477453344676" y1="0" x2="383.9477453344676" y2="266" stroke="#e1e0d9"/><text x="383.9477453344676" y="281" font-size="10" fill="#898781" text-anchor="middle" font-variant-numeric="tabular-nums">1.0k</text><line x1="501.9216180017014" y1="0" x2="501.9216180017014" y2="266" stroke="#e1e0d9"/><text x="501.9216180017014" y="281" font-size="10" fill="#898781" text-anchor="middle" font-variant-numeric="tabular-nums">1.5k</text><line x1="619.8954906689352" y1="0" x2="619.8954906689352" y2="266" stroke="#e1e0d9"/><text x="619.8954906689352" y="281" font-size="10" fill="#898781" text-anchor="middle" font-variant-numeric="tabular-nums">2.0k</text><text x="688" y="295" font-size="10" fill="#898781" text-anchor="end">ms</text><text x="138" y="11" font-size="11.5" fill="#0b0b0b" text-anchor="end">nodejs-rsc</text><path d="M148,0 h33.40956847805237 a3,3 0 0 1 3,3 v3 a3,3 0 0 1 -3,3 h-33.40956847805237 Z" fill="#2a78d6"/><text x="190.40956847805236" y="8" font-size="9.5" fill="#52514e" font-variant-numeric="tabular-nums">154</text><path d="M148,12 h33.28144885233575 a3,3 0 0 1 3,3 v3 a3,3 0 0 1 -3,3 h-33.28144885233575 Z" fill="#eb6834"/><text x="190.28144885233576" y="20" font-size="9.5" fill="#52514e" font-variant-numeric="tabular-nums">154</text><text x="138" y="46" font-size="11.5" fill="#0b0b0b" text-anchor="end">pola-goja</text><path d="M148,35 h286.1480632137567 a3,3 0 0 1 3,3 v3 a3,3 0 0 1 -3,3 h-286.1480632137567 Z" fill="#2a78d6"/><text x="443.1480632137567" y="43" font-size="9.5" fill="#52514e" font-variant-numeric="tabular-nums">1.2k</text><path d="M148,47 h105.39510204989043 a3,3 0 0 1 3,3 v3 a3,3 0 0 1 -3,3 h-105.39510204989043 Z" fill="#eb6834"/><text x="262.3951020498904" y="55" font-size="9.5" fill="#52514e" font-variant-numeric="tabular-nums">459</text><text x="138" y="81" font-size="11.5" fill="#0b0b0b" text-anchor="end">pola-moderncquickjs</text><path d="M148,70 h213.93885117934158 a3,3 0 0 1 3,3 v3 a3,3 0 0 1 -3,3 h-213.93885117934158 Z" fill="#2a78d6"/><text x="370.93885117934155" y="78" font-size="9.5" fill="#52514e" font-variant-numeric="tabular-nums">919</text><path d="M148,82 h104.94680133375492 a3,3 0 0 1 3,3 v3 a3,3 0 0 1 -3,3 h-104.94680133375492 Z" fill="#eb6834"/><text x="261.94680133375493" y="90" font-size="9.5" fill="#52514e" font-variant-numeric="tabular-nums">458</text><text x="138" y="116" font-size="11.5" fill="#0b0b0b" text-anchor="end">pola-nativersc</text><path d="M148,105 h177.4971938079237 a3,3 0 0 1 3,3 v3 a3,3 0 0 1 -3,3 h-177.4971938079237 Z" fill="#2a78d6"/><text x="334.49719380792374" y="113" font-size="9.5" fill="#52514e" font-variant-numeric="tabular-nums">765</text><path d="M148,117 h105.49585173714824 a3,3 0 0 1 3,3 v3 a3,3 0 0 1 -3,3 h-105.49585173714824 Z" fill="#eb6834"/><text x="262.49585173714826" y="125" font-size="9.5" fill="#52514e" font-variant-numeric="tabular-nums">460</text><text x="138" y="151" font-size="11.5" fill="#0b0b0b" text-anchor="end">pola-qjs</text><path d="M148,140 h470.6842105263158 a3,3 0 0 1 3,3 v3 a3,3 0 0 1 -3,3 h-470.6842105263158 Z" fill="#2a78d6"/><text x="627.6842105263158" y="148" font-size="9.5" fill="#52514e" font-variant-numeric="tabular-nums">2.0k</text><path d="M148,152 h177.3792199352565 a3,3 0 0 1 3,3 v3 a3,3 0 0 1 -3,3 h-177.3792199352565 Z" fill="#eb6834"/><text x="334.3792199352565" y="160" font-size="9.5" fill="#52514e" font-variant-numeric="tabular-nums">764</text><text x="138" y="186" font-size="11.5" fill="#0b0b0b" text-anchor="end">pola-quickjsgo</text><path d="M148,175 h393.7994579703529 a3,3 0 0 1 3,3 v3 a3,3 0 0 1 -3,3 h-393.7994579703529 Z" fill="#2a78d6"/><text x="550.7994579703529" y="183" font-size="9.5" fill="#52514e" font-variant-numeric="tabular-nums">1.7k</text><path d="M148,187 h141.19592534497986 a3,3 0 0 1 3,3 v3 a3,3 0 0 1 -3,3 h-141.19592534497986 Z" fill="#eb6834"/><text x="298.19592534497986" y="195" font-size="9.5" fill="#52514e" font-variant-numeric="tabular-nums">611</text><text x="138" y="221" font-size="11.5" fill="#0b0b0b" text-anchor="end">pola-sobek</text><path d="M148,210 h213.73900343904327 a3,3 0 0 1 3,3 v3 a3,3 0 0 1 -3,3 h-213.73900343904327 Z" fill="#2a78d6"/><text x="370.73900343904324" y="218" font-size="9.5" fill="#52514e" font-variant-numeric="tabular-nums">919</text><path d="M148,222 h105.55247919602851 a3,3 0 0 1 3,3 v3 a3,3 0 0 1 -3,3 h-105.55247919602851 Z" fill="#eb6834"/><text x="262.5524791960285" y="230" font-size="9.5" fill="#52514e" font-variant-numeric="tabular-nums">460</text><text x="138" y="256" font-size="11.5" fill="#0b0b0b" text-anchor="end">pola-v8go</text><path d="M148,245 h249.52802934686596 a3,3 0 0 1 3,3 v3 a3,3 0 0 1 -3,3 h-249.52802934686596 Z" fill="#2a78d6"/><text x="406.528029346866" y="253" font-size="9.5" fill="#52514e" font-variant-numeric="tabular-nums">1.1k</text><path d="M148,257 h105.02065297804462 a3,3 0 0 1 3,3 v3 a3,3 0 0 1 -3,3 h-105.02065297804462 Z" fill="#eb6834"/><text x="262.0206529780446" y="265" font-size="9.5" fill="#52514e" font-variant-numeric="tabular-nums">458</text></g></svg>