<svg xmlns="http://www.w3.org/2000/svg" width="778" height="390" viewBox="0 0 778 390" font-family='system-ui, -apple-system, "Segoe UI", sans-serif'><rect x="0" y="0" width="778" height="390" rx="10" fill="#fcfcfb"/><rect x="0.5" y="0.5" width="777" height="389" rx="10" fill="none" stroke="rgba(11,11,11,0.10)"/><text x="20" y="26" font-size="15" font-weight="600" fill="#0b0b0b">Build time</text><text x="20" y="44" font-size="11.5" fill="#898781">cold (clean) vs warm production build, ms</text><g><rect x="674" y="18" width="10" height="10" rx="2" fill="#eb6834"/><text x="689" y="27" font-size="11" fill="#52514e">warm build</text><rect x="578" y="18" width="10" height="10" rx="2" fill="#2a78d6"/><text x="593" y="27" font-size="11" fill="#52514e">cold build</text></g><g transform="translate(20,64)"><line x1="148" y1="0" x2="148" y2="266" stroke="#e1e0d9"/><text x="148" y="281" font-size="10" fill="#898781" text-anchor="middle" font-variant-numeric="tabular-nums">0</text><line x1="328.71011122466405" y1="0" x2="328.71011122466405" y2="266" stroke="#e1e0d9"/><text x="328.71011122466405" y="281" font-size="10" fill="#898781" text-anchor="middle" font-variant-numeric="tabular-nums">1.0k</text><line x1="509.42022244932804" y1="0" x2="509.42022244932804" y2="266" stroke="#e1e0d9"/><text x="509.42022244932804" y="281" font-size="10" fill="#898781" text-anchor="middle" font-variant-numeric="tabular-nums">2.0k</text><text x="688" y="295" font-size="10" fill="#898781" text-anchor="end">ms</text><text x="138" y="11" font-size="11.5" fill="#0b0b0b" text-anchor="end">nodejs-rsc</text><path d="M148,0 h24.899111231530977 a3,3 0 0 1 3,3 v3 a3,3 0 0 1 -3,3 h-24.899111231530977 Z" fill="#2a78d6"/><text x="181.89911123153098" y="8" font-size="9.5" fill="#52514e" font-variant-numeric="tabular-nums">154</text><path d="M148,12 h25.58707462496328 a3,3 0 0 1 3,3 v3 a3,3 0 0 1 -3,3 h-25.58707462496328 Z" fill="#eb6834"/><text x="182.5870746249633" y="20" font-size="9.5" fill="#52514e" font-variant-numeric="tabular-nums">158</text><text x="138" y="46" font-size="11.5" fill="#0b0b0b" text-anchor="end">pola-goja</text><path d="M148,35 h274.0435994466416 a3,3 0 0 1 3,3 v3 a3,3 0 0 1 -3,3 h-274.0435994466416 Z" fill="#2a78d6"/><text x="431.0435994466416" y="43" font-size="9.5" fill="#52514e" font-variant-numeric="tabular-nums">1.5k</text><path d="M148,47 h80.26182232654149 a3,3 0 0 1 3,3 v3 a3,3 0 0 1 -3,3 h-80.26182232654149 Z" fill="#eb6834"/><text x="237.2618223265415" y="55" font-size="9.5" fill="#52514e" font-variant-numeric="tabular-nums">461</text><text x="138" y="81" font-size="11.5" fill="#0b0b0b" text-anchor="end">pola-moderncquickjs</text><path d="M148,70 h301.9642151814083 a3,3 0 0 1 3,3 v3 a3,3 0 0 1 -3,3 h-301.9642151814083 Z" fill="#2a78d6"/><text x="458.9642151814083" y="78" font-size="9.5" fill="#52514e" font-variant-numeric="tabular-nums">1.7k</text><path d="M148,82 h108.23845819578786 a3,3 0 0 1 3,3 v3 a3,3 0 0 1 -3,3 h-108.23845819578786 Z" fill="#eb6834"/><text x="265.23845819578787" y="90" font-size="9.5" fill="#52514e" font-variant-numeric="tabular-nums">616</text><text x="138" y="116" font-size="11.5" fill="#0b0b0b" text-anchor="end">pola-nativersc</text><path d="M148,105 h274.52952893572467 a3,3 0 0 1 3,3 v3 a3,3 0 0 1 -3,3 h-274.52952893572467 Z" fill="#2a78d6"/><text x="431.52952893572467" y="113" font-size="9.5" fill="#52514e" font-variant-numeric="tabular-nums">1.5k</text><path d="M148,117 h108.17972740963987 a3,3 0 0 1 3,3 v3 a3,3 0 0 1 -3,3 h-108.17972740963987 Z" fill="#eb6834"/><text x="265.1797274096399" y="125" font-size="9.5" fill="#52514e" font-variant-numeric="tabular-nums">615</text><text x="138" y="151" font-size="11.5" fill="#0b0b0b" text-anchor="end">pola-qjs</text><path d="M148,140 h470.68421052631584 a3,3 0 0 1 3,3 v3 a3,3 0 0 1 -3,3 h-470.68421052631584 Z" fill="#2a78d6"/><text x="627.6842105263158" y="148" font-size="9.5" fill="#52514e" font-variant-numeric="tabular-nums">2.6k</text><path d="M148,152 h135.3072064662415 a3,3 0 0 1 3,3 v3 a3,3 0 0 1 -3,3 h-135.3072064662415 Z" fill="#eb6834"/><text x="292.3072064662415" y="160" font-size="9.5" fill="#52514e" font-variant-numeric="tabular-nums">765</text><text x="138" y="186" font-size="11.5" fill="#0b0b0b" text-anchor="end">pola-quickjsgo</text><path d="M148,175 h385.7842510415228 a3,3 0 0 1 3,3 v3 a3,3 0 0 1 -3,3 h-385.7842510415228 Z" fill="#2a78d6"/><text x="542.7842510415228" y="183" font-size="9.5" fill="#52514e" font-variant-numeric="tabular-nums">2.2k</text><path d="M148,187 h107.73608408658329 a3,3 0 0 1 3,3 v3 a3,3 0 0 1 -3,3 h-107.73608408658329 Z" fill="#eb6834"/><text x="264.7360840865833" y="195" font-size="9.5" fill="#52514e" font-variant-numeric="tabular-nums">613</text><text x="138" y="221" font-size="11.5" fill="#0b0b0b" text-anchor="end">pola-sobek</text><path d="M148,210 h246.15207803978205 a3,3 0 0 1 3,3 v3 a3,3 0 0 1 -3,3 h-246.15207803978205 Z" fill="#2a78d6"/><text x="403.15207803978205" y="218" font-size="9.5" fill="#52514e" font-variant-numeric="tabular-nums">1.4k</text><path d="M148,222 h80.0222007190576 a3,3 0 0 1 3,3 v3 a3,3 0 0 1 -3,3 h-80.0222007190576 Z" fill="#eb6834"/><text x="237.0222007190576" y="230" font-size="9.5" fill="#52514e" font-variant-numeric="tabular-nums">459</text><text x="138" y="256" font-size="11.5" fill="#0b0b0b" text-anchor="end">pola-v8go</text><path d="M148,245 h218.7607622207924 a3,3 0 0 1 3,3 v3 a3,3 0 0 1 -3,3 h-218.7607622207924 Z" fill="#2a78d6"/><text x="375.7607622207924" y="253" font-size="9.5" fill="#52514e" font-variant-numeric="tabular-nums">1.2k</text><path d="M148,257 h107.52320757556065 a3,3 0 0 1 3,3 v3 a3,3 0 0 1 -3,3 h-107.52320757556065 Z" fill="#eb6834"/><text x="264.52320757556066" y="265" font-size="9.5" fill="#52514e" font-variant-numeric="tabular-nums">612</text></g></svg>