<svg xmlns="http://www.w3.org/2000/svg" width="778" height="244" viewBox="0 0 778 244" font-family='system-ui, -apple-system, "Segoe UI", sans-serif'><rect x="0" y="0" width="778" height="244" rx="10" fill="#fcfcfb"/><rect x="0.5" y="0.5" width="777" height="243" rx="10" fill="none" stroke="rgba(11,11,11,0.10)"/><text x="20" y="26" font-size="15" font-weight="600" fill="#0b0b0b">Streaming timeline — Scenario 4 (nested Suspense 20/50/200ms)</text><text x="20" y="44" font-size="11.5" fill="#898781">each dot = a response chunk flushed; content streams progressively as sources resolve</text><g><rect x="655.4" y="18" width="10" height="10" rx="2" fill="#eb6834"/><text x="670.4" y="27" font-size="11" fill="#52514e">Node baseline</text><rect x="596.6" y="18" width="10" height="10" rx="2" fill="#2a78d6"/><text x="611.6" y="27" font-size="11" fill="#52514e">Pola</text></g><g transform="translate(20,64)"><line x1="181.34255810774314" y1="-4" x2="181.34255810774314" y2="130" stroke="#e1e0d9"/><text x="181.34255810774314" y="-8" font-size="9.5" fill="#898781" text-anchor="middle">20ms</text><line x1="231.35639526935785" y1="-4" x2="231.35639526935785" y2="130" stroke="#e1e0d9"/><text x="231.35639526935785" y="-8" font-size="9.5" fill="#898781" text-anchor="middle">50ms</text><line x1="481.42558107743145" y1="-4" x2="481.42558107743145" y2="130" stroke="#e1e0d9"/><text x="481.42558107743145" y="-8" font-size="9.5" fill="#898781" text-anchor="middle">200ms</text><line x1="598.1245344545325" y1="-4" x2="598.1245344545325" y2="130" stroke="#e1e0d9"/><text x="598.1245344545325" y="-8" font-size="9.5" fill="#898781" text-anchor="middle">270ms</text><text x="148" y="146" font-size="10" fill="#898781" text-anchor="middle" font-variant-numeric="tabular-nums">0</text><text x="231.35639526935785" y="146" font-size="10" fill="#898781" text-anchor="middle" font-variant-numeric="tabular-nums">50</text><text x="314.7127905387157" y="146" font-size="10" fill="#898781" text-anchor="middle" font-variant-numeric="tabular-nums">100</text><text x="398.0691858080736" y="146" font-size="10" fill="#898781" text-anchor="middle" font-variant-numeric="tabular-nums">150</text><text x="481.42558107743145" y="146" font-size="10" fill="#898781" text-anchor="middle" font-variant-numeric="tabular-nums">200</text><text x="564.7819763467893" y="146" font-size="10" fill="#898781" text-anchor="middle" font-variant-numeric="tabular-nums">250</text><text x="648.1383716161472" y="146" font-size="10" fill="#898781" text-anchor="middle" font-variant-numeric="tabular-nums">300</text><text x="688" y="160" font-size="10" fill="#898781" text-anchor="end">ms since request</text><text x="138" y="17" font-size="11.5" fill="#0b0b0b" text-anchor="end">nodejs-rsc</text><line x1="148.40844633681985" y1="13" x2="605.3882107383043" y2="13" stroke="#eb6834" stroke-opacity="0.35" stroke-width="2"/><circle cx="148.40844633681985" cy="13" r="4.5" fill="#eb6834" stroke="#fcfcfb" stroke-width="2"/><circle cx="183.93660912852556" cy="13" r="4.5" fill="#eb6834" stroke="#fcfcfb" stroke-width="2"/><circle cx="269.30022639596956" cy="13" r="4.5" fill="#eb6834" stroke="#fcfcfb" stroke-width="2"/><circle cx="605.3882107383043" cy="13" r="4.5" fill="#eb6834" stroke="#fcfcfb" stroke-width="2"/><text x="138" y="43" font-size="11.5" fill="#0b0b0b" text-anchor="end">pola-goja</text><line x1="150.04056455619389" y1="39" x2="648" y2="39" stroke="#2a78d6" stroke-opacity="0.35" stroke-width="2"/><circle cx="150.04056455619389" cy="39" r="4.5" fill="#2a78d6" stroke="#fcfcfb" stroke-width="2"/><circle cx="195.27141175725285" cy="39" r="4.5" fill="#2a78d6" stroke="#fcfcfb" stroke-width="2"/><circle cx="297.7964436827522" cy="39" r="4.5" fill="#2a78d6" stroke="#fcfcfb" stroke-width="2"/><circle cx="648" cy="39" r="4.5" fill="#2a78d6" stroke="#fcfcfb" stroke-width="2"/><text x="138" y="69" font-size="11.5" fill="#0b0b0b" text-anchor="end">pola-moderncquickjs</text><line x1="187.099150765045" y1="65" x2="611.5382455812776" y2="65" stroke="#2a78d6" stroke-opacity="0.35" stroke-width="2"/><circle cx="187.099150765045" cy="65" r="4.5" fill="#2a78d6" stroke="#fcfcfb" stroke-width="2"/><circle cx="273.76646205450174" cy="65" r="4.5" fill="#2a78d6" stroke="#fcfcfb" stroke-width="2"/><circle cx="610.9297438958113" cy="65" r="4.5" fill="#2a78d6" stroke="#fcfcfb" stroke-width="2"/><circle cx="611.5382455812776" cy="65" r="4.5" fill="#2a78d6" stroke="#fcfcfb" stroke-width="2"/><text x="138" y="95" font-size="11.5" fill="#0b0b0b" text-anchor="end">pola-nativersc</text><line x1="149.35370785917436" y1="91" x2="605.0347796223623" y2="91" stroke="#2a78d6" stroke-opacity="0.35" stroke-width="2"/><circle cx="149.35370785917436" cy="91" r="4.5" fill="#2a78d6" stroke="#fcfcfb" stroke-width="2"/><circle cx="149.6471223705225" cy="91" r="4.5" fill="#2a78d6" stroke="#fcfcfb" stroke-width="2"/><circle cx="184.47342431406022" cy="91" r="4.5" fill="#2a78d6" stroke="#fcfcfb" stroke-width="2"/><circle cx="270.1838041858248" cy="91" r="4.5" fill="#2a78d6" stroke="#fcfcfb" stroke-width="2"/><circle cx="605.0347796223623" cy="91" r="4.5" fill="#2a78d6" stroke="#fcfcfb" stroke-width="2"/><text x="138" y="121" font-size="11.5" fill="#0b0b0b" text-anchor="end">pola-sobek</text><line x1="153.3598162158197" y1="117" x2="617.1197898085138" y2="117" stroke="#2a78d6" stroke-opacity="0.35" stroke-width="2"/><circle cx="153.3598162158197" cy="117" r="4.5" fill="#2a78d6" stroke="#fcfcfb" stroke-width="2"/><circle cx="193.54093299146098" cy="117" r="4.5" fill="#2a78d6" stroke="#fcfcfb" stroke-width="2"/><circle cx="279.2413100957932" cy="117" r="4.5" fill="#2a78d6" stroke="#fcfcfb" stroke-width="2"/><circle cx="617.1197898085138" cy="117" r="4.5" fill="#2a78d6" stroke="#fcfcfb" stroke-width="2"/></g></svg>